<?xml version="1.0" encoding="UTF-8" standalone="no"?>
<!-- Created with Inkscape (http://www.inkscape.org/) -->

<svg
   version="1.1"
   id="svg815"
   width="30"
   height="30"
   viewBox="0 0 30 30"
   xmlns="http://www.w3.org/2000/svg"
   xmlns:svg="http://www.w3.org/2000/svg"
   xmlns:rdf="http://www.w3.org/1999/02/22-rdf-syntax-ns#"
   xmlns:cc="http://creativecommons.org/ns#"
   xmlns:dc="http://purl.org/dc/elements/1.1/">
  <metadata
     id="metadata821">
    <rdf:RDF>
      <cc:Work
         rdf:about="">
        <dc:format>image/svg+xml</dc:format>
        <dc:type
           rdf:resource="http://purl.org/dc/dcmitype/StillImage" />
      </cc:Work>
    </rdf:RDF>
  </metadata>
  <defs
     id="defs819" />
  <g
     id="g896"
     transform="matrix(1.0491,0,0,1.0491,-483.29451,108.87348)">
    <path
       id="path1171"
       d="m 470.06678,-102.80926 a 14.273317,14.273317 0 0 0 -0.25976,0.0859 14.273317,14.273317 0 0 0 -1.30079,0.58203 14.273317,14.273317 0 0 0 -0.19921,0.11524 c -0.0803,0.56883 -0.26255,0.74186 -1.39844,1.12109 -0.15759,0.0526 -0.3606,0.0712 -0.54688,0.12305 a 14.273317,14.273317 0 0 0 -0.2539,0.18164 14.273317,14.273317 0 0 0 -1.07227,0.941404 14.273317,14.273317 0 0 0 -0.97265,1.042969 14.273317,14.273317 0 0 0 -0.17383,0.228516 c 3.34658,-0.675246 5.85905,-1.756639 6.29297,-2.708989 0.16803,-0.36879 0.0922,-1.02988 -0.11524,-1.71289 z"
       style="fill:#000000;stroke-width:0.24875584" />
    <path
       id="path1167"
       d="m 473.26991,-103.57293 a 14.273317,14.273317 0 0 0 -0.7168,0.0879 14.273317,14.273317 0 0 0 -1.18359,0.26562 c 0.0822,0.22193 0.17386,0.39619 0.23828,0.59571 0.37373,1.15764 0.54095,1.3282 2.44922,2.49609 1.12647,0.689412 2.41119,1.617852 2.85547,2.062502 0.44426,0.44465 1.05421,0.808594 1.35546,0.808594 0.57674,0 0.94637,-0.671934 0.69922,-1.271485 -0.13087,-0.317469 -2.2162,-1.883491 -4.3457,-3.263671 -0.49298,-0.31952 -0.92573,-0.99566 -1.35156,-1.78125 z"
       style="fill:#000000;stroke-width:0.24875584" />
    <path
       id="path1163"
       d="m 477.86561,-103.39519 a 14.273317,14.273317 0 0 0 -0.0508,-0.0137 14.273317,14.273317 0 0 0 -1.41016,-0.2129 14.273317,14.273317 0 0 0 -1.1875,-0.0605 c 0.48271,0.54426 0.89869,1.0723 1.83203,1.74609 2.36953,1.71058 3.29297,2.891959 3.29297,4.212889 0,0.83055 -0.0875,0.945447 -1,1.310547 -1.50074,0.60047 -2.28175,0.512211 -3.10742,-0.349609 -1.19352,-1.245761 -3.67516,-2.732422 -4.56055,-2.732422 -0.43901,0 -1.43986,0.321736 -2.22265,0.716796 -0.78279,0.395061 -1.99653,0.889637 -2.69727,1.097657 -1.76452,0.52382 -2.55452,0.967557 -4.10351,2.304687 -0.20645,0.178214 -0.58758,0.351792 -0.875,0.554688 a 14.273317,14.273317 0 0 0 -0.43164,1.183594 14.273317,14.273317 0 0 0 -0.35352,1.380859 14.273317,14.273317 0 0 0 -0.006,0.0332 c 0.81213,-0.470207 1.88171,-1.14826 2.68555,-1.777344 1.61974,-1.2676 5.95934,-3.325738 7.74609,-3.673828 0.75138,-0.14638 1.87695,0.504123 3.9082,2.257813 1.54561,1.33442 2.34869,1.45051 4.28125,0.61914 0.73528,-0.31632 1.46081,-0.4652 1.82032,-0.375 0.65975,0.16558 1.40429,1.469711 1.40429,2.462891 0,0.8085 -1.23688,2.004573 -2.62109,2.533203 -1.15757,0.4421 -1.60478,1.155379 -1.10156,1.761719 0.16487,0.19866 0.48576,0.361328 0.71289,0.361328 0.67976,0 3.58215,-2.050525 4.1875,-2.958984 1.03277,-1.54989 0.66188,-3.360301 -1.08789,-5.3125 -0.56121,-0.626141 -0.83594,-1.182764 -0.83594,-1.689454 0,-1.56812 -1.42266,-3.36402 -4.21875,-5.38086 z"
       style="fill:#000000;stroke-width:0.24875584" />
    <path
       id="path1159"
       d="m 485.05311,-99.518243 a 14.273317,14.273317 0 0 0 -0.87891,-0.818357 14.273317,14.273317 0 0 0 -1.13476,-0.86328 14.273317,14.273317 0 0 0 -1.2168,-0.7461 14.273317,14.273317 0 0 0 -0.38476,-0.18554 c 1.01946,1.05478 1.45464,1.70373 1.85351,2.90234 0.29479,0.88585 0.90791,2.166516 1.36328,2.847656 1.42708,2.1346 1.79871,4.118658 1.04297,5.580078 -0.92707,1.79276 -4.90594,4.425663 -6.19726,4.101563 -0.95995,-0.240931 -1.64649,-1.24362 -1.64649,-2.40625 0,-0.790051 0.16825,-1.154572 0.8457,-1.832032 0.46518,-0.46517 1.08846,-0.845703 1.38477,-0.845703 0.88487,0 1.50195,-0.467059 1.50195,-1.136719 0,-0.86542 -0.59363,-1.003418 -2.08203,-0.486328 -1.8295,0.6356 -2.38611,1.045145 -2.82422,2.078125 -1.07052,2.52407 -0.86423,3.690572 0.95117,5.388672 1.15263,1.0781 1.34477,1.169955 2.21876,1.052735 1.75591,-0.235521 3.69231,-1.340286 5.60742,-3.197266 2.09405,-2.03049 2.44666,-2.806066 2.30273,-5.066406 -0.0847,-1.33017 -0.26931,-1.843095 -1.22656,-3.396485 -0.4998,-0.811059 -1.04957,-1.987403 -1.48047,-2.970703 z"
       style="fill:#000000;stroke-width:0.24875584" />
    <path
       id="path1151"
       d="m 479.19959,-75.799493 a 14.273317,14.273317 0 0 0 0.95118,-0.316406 14.273317,14.273317 0 0 0 1.19726,-0.53711 c 0.94532,-2.127687 1.63685,-2.806939 4.03711,-3.539062 0.35336,-0.107781 0.42898,-0.174819 0.68359,-0.259766 a 14.273317,14.273317 0 0 0 0.69141,-0.908203 14.273317,14.273317 0 0 0 0.74609,-1.216797 14.273317,14.273317 0 0 0 0.61915,-1.285156 14.273317,14.273317 0 0 0 0.21093,-0.578125 l -0.47851,0.498047 c -1.50324,1.56133 -1.85365,1.793203 -3.29297,2.189453 -2.36632,0.65145 -3.24179,1.32981 -4.27734,3.3125 -0.43073,0.824671 -0.77305,1.756648 -1.0879,2.640625 z"
       style="fill:#000000;stroke-width:0.24875584" />
    <path
       id="path1147"
       d="m 475.62342,-75.168633 a 14.273317,14.273317 0 0 0 0.36524,-0.01367 14.273317,14.273317 0 0 0 1.41797,-0.171875 14.273317,14.273317 0 0 0 0.1914,-0.04297 c 0.35064,-1.080702 0.955,-2.623116 1.57813,-3.824219 1.24536,-2.40047 1.33423,-2.501217 2.53515,-2.960937 3.39858,-1.30102 4.25073,-1.812547 5.58594,-3.347657 0.71077,-0.817204 1.45931,-1.44365 1.73633,-1.482421 a 14.273317,14.273317 0 0 0 0.14844,-0.982422 14.273317,14.273317 0 0 0 0.0469,-0.941407 c -0.10065,-0.0094 -0.16173,-0.04805 -0.36719,0.002 -0.37624,0.09158 -1.5227,0.99379 -2.54882,2.00586 -1.82708,1.80206 -2.68996,2.320126 -5.00391,3.009766 -0.63106,0.188079 -1.44055,0.573648 -1.79883,0.855468 -0.75532,0.59413 -2.89189,4.823771 -3.70703,7.337891 z"
       style="fill:#000000;stroke-width:0.24875584" />
    <path
       id="path1145"
       d="m 462.64686,-82.270196 c 0.57075,-0.528215 0.91628,-1.095692 1.16992,-1.871094 0.23363,-0.71424 0.63203,-1.711424 0.88477,-2.214843 0.75497,-1.503781 4.10266,-3.828427 6.52344,-4.529297 1.18905,-0.34426 1.64684,-0.93004 1.17382,-1.5 -0.4449,-0.53607 -0.85509,-0.499647 -2.75586,0.246093 -1.96494,0.77092 -5.36316,3.14841 -6.1289,4.28711 -0.3042,0.45237 -0.74365,1.404674 -0.97656,2.115234 -0.23763,0.72497 -0.52274,1.137888 -0.82032,1.582031 a 14.273317,14.273317 0 0 0 0.54297,1.208985 14.273317,14.273317 0 0 0 0.38672,0.675781 z"
       style="fill:#000000;stroke-width:0.24875584" />
    <path
       id="path1141"
       d="m 468.46522,-76.73504 c 2.12341,-0.241246 2.85362,-0.65652 3.81836,-2.697265 0.46283,-0.97902 1.12036,-2.114941 1.46289,-2.525391 0.75277,-0.90203 0.7955,-1.508484 0.12891,-1.865234 -0.81334,-0.43529 -1.29856,0.04664 -2.58594,2.572265 -1.36744,2.68268 -1.53543,2.800193 -4.25586,2.976563 -0.29662,0.01923 -0.52035,0.09687 -0.77344,0.132812 a 14.273317,14.273317 0 0 0 0.66016,0.501953 14.273317,14.273317 0 0 0 1.21679,0.746094 14.273317,14.273317 0 0 0 0.32813,0.158203 z"
       style="fill:#000000;stroke-width:0.24875584" />
    <path
       id="path1135"
       d="m 460.71717,-89.660821 a 14.273317,14.273317 0 0 0 -0.0117,0.240234 14.273317,14.273317 0 0 0 0.0371,1.009766 14.273317,14.273317 0 0 0 0.17188,1.416016 14.273317,14.273317 0 0 0 0.17187,0.767578 c 0.12608,-0.320918 0.21409,-0.429596 0.33203,-0.78125 0.638,-1.9022 0.64564,-1.910451 2.87891,-3.587891 2.44035,-1.83297 5.44877,-3.413075 6.875,-3.609375 0.77356,-0.10647 1.04097,3.12e-4 1.83984,0.732422 0.85788,0.78614 0.91956,0.933416 0.75977,1.785156 -0.23392,1.24692 -0.78568,1.735751 -2.66602,2.363282 -2.98223,0.99525 -5.68418,3.76497 -6.15234,6.30664 -0.11944,0.64846 -0.34621,1.335361 -0.50391,1.525391 -0.0746,0.08986 -0.70758,0.374917 -0.94921,0.527343 a 14.273317,14.273317 0 0 0 0.29882,0.417969 14.273317,14.273317 0 0 0 0.91993,1.046875 c 0.88181,-0.390765 1.43083,-0.529908 2.04882,-0.373047 1.45544,0.36943 2.09394,-0.03511 3.12696,-1.988281 1.09733,-2.07478 1.35693,-2.3801 2.56054,-2.99414 1.11742,-0.570061 1.90437,-0.471103 2.65625,0.335937 0.71762,0.77028 0.62559,1.793204 -0.30468,3.402344 -0.44466,0.76914 -1.14585,2.171697 -1.5586,3.117187 -0.57108,1.308167 -1.26378,1.881608 -2.30078,2.263672 a 14.273317,14.273317 0 0 0 1.19727,0.306641 14.273317,14.273317 0 0 0 1.41015,0.21289 14.273317,14.273317 0 0 0 0.16797,0.0078 c 0.3849,-0.427345 0.69544,-0.921664 0.90625,-1.580078 0.16538,-0.51653 0.903,-2.070585 1.63867,-3.453125 0.73568,-1.38254 1.33789,-2.794529 1.33789,-3.136719 0,-0.78041 -1.52554,-2.807848 -2.48632,-3.304688 -0.99148,-0.512709 -1.65698,-0.466309 -3.11133,0.212891 -1.8322,0.85565 -2.74521,1.740977 -3.38281,3.279297 -0.41416,0.99923 -0.73332,1.413848 -1.16993,1.523438 -0.75074,0.18841 -1.05431,-0.253754 -0.79492,-1.158204 0.68188,-2.37756 2.99664,-4.424531 5.88086,-5.201172 1.44944,-0.39029 2.22133,-1.09216 2.67774,-2.43164 0.73903,-2.16895 0.33856,-3.343031 -1.59375,-4.681641 -1.49002,-1.03221 -2.75571,-0.994723 -5.37305,0.160157 -1.81944,0.80282 -5.8239,3.411613 -7.2461,4.720703 -0.0834,0.0768 -0.18776,0.433014 -0.28906,0.599609 z"
       style="fill:#000000;stroke-width:0.24875584" />
  </g>
</svg>
