<?xml version="1.0" encoding="UTF-8"?>
<!DOCTYPE svg PUBLIC "-//W3C//DTD SVG 1.1//EN" "http://www.w3.org/Graphics/SVG/1.1/DTD/svg11.dtd">
<svg version="1.2" width="7.94mm" height="7.94mm" viewBox="0 0 794 794" preserveAspectRatio="xMidYMid" fill-rule="evenodd" stroke-width="28.222" stroke-linejoin="round" xmlns="http://www.w3.org/2000/svg" xmlns:ooo="http://xml.openoffice.org/svg/export" xmlns:xlink="http://www.w3.org/1999/xlink" xmlns:presentation="http://sun.com/xmlns/staroffice/presentation" xmlns:smil="http://www.w3.org/2001/SMIL20/" xmlns:anim="urn:oasis:names:tc:opendocument:xmlns:animation:1.0" xml:space="preserve">
 <defs class="ClipPathGroup">
  <clipPath id="presentation_clip_path" clipPathUnits="userSpaceOnUse">
   <rect x="0" y="0" width="794" height="794"/>
  </clipPath>
  <clipPath id="presentation_clip_path_shrink" clipPathUnits="userSpaceOnUse">
   <rect x="0" y="0" width="793" height="793"/>
  </clipPath>
 </defs>
 <defs class="TextShapeIndex">
  <g ooo:slide="id1" ooo:id-list="id3"/>
 </defs>
 <defs class="EmbeddedBulletChars">
  <g id="bullet-char-template-57356" transform="scale(0.00048828125,-0.00048828125)">
   <path d="M 580,1141 L 1163,571 580,0 -4,571 580,1141 Z"/>
  </g>
  <g id="bullet-char-template-57354" transform="scale(0.00048828125,-0.00048828125)">
   <path d="M 8,1128 L 1137,1128 1137,0 8,0 8,1128 Z"/>
  </g>
  <g id="bullet-char-template-10146" transform="scale(0.00048828125,-0.00048828125)">
   <path d="M 174,0 L 602,739 174,1481 1456,739 174,0 Z M 1358,739 L 309,1346 659,739 1358,739 Z"/>
  </g>
  <g id="bullet-char-template-10132" transform="scale(0.00048828125,-0.00048828125)">
   <path d="M 2015,739 L 1276,0 717,0 1260,543 174,543 174,936 1260,936 717,1481 1274,1481 2015,739 Z"/>
  </g>
  <g id="bullet-char-template-10007" transform="scale(0.00048828125,-0.00048828125)">
   <path d="M 0,-2 C -7,14 -16,27 -25,37 L 356,567 C 262,823 215,952 215,954 215,979 228,992 255,992 264,992 276,990 289,987 310,991 331,999 354,1012 L 381,999 492,748 772,1049 836,1024 860,1049 C 881,1039 901,1025 922,1006 886,937 835,863 770,784 769,783 710,716 594,584 L 774,223 C 774,196 753,168 711,139 L 727,119 C 717,90 699,76 672,76 641,76 570,178 457,381 L 164,-76 C 142,-110 111,-127 72,-127 30,-127 9,-110 8,-76 1,-67 -2,-52 -2,-32 -2,-23 -1,-13 0,-2 Z"/>
  </g>
  <g id="bullet-char-template-10004" transform="scale(0.00048828125,-0.00048828125)">
   <path d="M 285,-33 C 182,-33 111,30 74,156 52,228 41,333 41,471 41,549 55,616 82,672 116,743 169,778 240,778 293,778 328,747 346,684 L 369,508 C 377,444 397,411 428,410 L 1163,1116 C 1174,1127 1196,1133 1229,1133 1271,1133 1292,1118 1292,1087 L 1292,965 C 1292,929 1282,901 1262,881 L 442,47 C 390,-6 338,-33 285,-33 Z"/>
  </g>
  <g id="bullet-char-template-9679" transform="scale(0.00048828125,-0.00048828125)">
   <path d="M 813,0 C 632,0 489,54 383,161 276,268 223,411 223,592 223,773 276,916 383,1023 489,1130 632,1184 813,1184 992,1184 1136,1130 1245,1023 1353,916 1407,772 1407,592 1407,412 1353,268 1245,161 1136,54 992,0 813,0 Z"/>
  </g>
  <g id="bullet-char-template-8226" transform="scale(0.00048828125,-0.00048828125)">
   <path d="M 346,457 C 273,457 209,483 155,535 101,586 74,649 74,723 74,796 101,859 155,911 209,963 273,989 346,989 419,989 480,963 531,910 582,859 608,796 608,723 608,648 583,586 532,535 482,483 420,457 346,457 Z"/>
  </g>
  <g id="bullet-char-template-8211" transform="scale(0.00048828125,-0.00048828125)">
   <path d="M -4,459 L 1135,459 1135,606 -4,606 -4,459 Z"/>
  </g>
  <g id="bullet-char-template-61548" transform="scale(0.00048828125,-0.00048828125)">
   <path d="M 173,740 C 173,903 231,1043 346,1159 462,1274 601,1332 765,1332 928,1332 1067,1274 1183,1159 1299,1043 1357,903 1357,740 1357,577 1299,437 1183,322 1067,206 928,148 765,148 601,148 462,206 346,322 231,437 173,577 173,740 Z"/>
  </g>
 </defs>
 <g>
  <g id="id2" class="Master_Slide">
   <g id="bg-id2" class="Background"/>
   <g id="bo-id2" class="BackgroundObjects"/>
  </g>
 </g>
 <g class="SlideGroup">
  <g>
   <g id="container-id1">
    <g id="id1" class="Slide" clip-path="url(#presentation_clip_path)">
     <g class="Page">
      <g class="Graphic">
       <g id="id3">
        <rect class="BoundingBox" stroke="none" fill="none" x="0" y="0" width="794" height="794"/>
        <defs>
         <clipPath id="clip_path_1" clipPathUnits="userSpaceOnUse">
          <path d="M 0,0 L 793,0 793,793 0,793 0,0 Z"/>
         </clipPath>
        </defs>
        <g clip-path="url(#clip_path_1)">
         <path fill="rgb(0,0,0)" stroke="none" d="M 260,27 C 258,28 256,28 253,29 241,34 229,39 217,45 216,46 216,46 215,47 214,47 213,48 212,49 209,64 204,69 173,80 168,81 163,82 158,83 155,85 153,86 151,88 140,96 130,105 121,114 111,123 102,133 94,143 92,145 91,147 89,149 182,131 252,101 264,74 268,64 266,46 260,27 L 260,27 Z"/>
         <path fill="rgb(0,0,0)" stroke="none" d="M 329,8 C 318,10 307,13 297,15 299,22 301,26 303,32 314,64 318,69 371,101 402,120 438,146 450,158 463,171 480,181 488,181 504,181 514,162 507,146 504,137 446,93 387,55 373,46 361,27 349,6 L 349,6 C 343,6 336,7 329,8 Z"/>
         <path fill="rgb(0,0,0)" stroke="none" d="M 477,11 C 476,10 476,10 475,10 462,8 449,6 436,4 425,3 414,3 403,3 417,18 428,32 454,51 520,99 545,131 545,168 545,191 543,194 518,204 476,221 454,218 431,195 398,160 330,119 305,119 293,119 265,128 243,139 222,150 188,163 169,169 120,184 98,196 55,233 49,238 38,243 31,248 26,259 22,270 19,281 15,294 11,307 9,320 9,320 9,320 9,320 31,307 61,289 83,271 128,236 248,179 298,169 319,165 350,183 406,232 449,269 471,272 525,249 545,240 565,236 575,239 594,243 614,279 614,307 614,329 580,363 542,377 510,389 497,409 511,426 516,432 525,436 531,436 550,436 630,379 647,354 676,311 665,261 617,207 601,189 594,174 594,160 594,116 554,67 477,11 L 477,11 Z"/>
         <path fill="rgb(0,0,0)" stroke="none" d="M 652,95 C 642,87 631,79 620,71 612,66 603,60 595,55 592,54 589,52 586,51 583,49 579,47 576,46 604,75 616,93 627,126 635,151 652,186 665,205 705,264 715,319 694,360 668,410 558,483 522,474 495,467 476,439 476,407 476,385 481,375 500,356 513,343 530,333 538,333 563,333 580,320 580,301 580,277 563,273 522,288 471,305 456,317 444,345 414,415 420,448 470,495 502,525 507,527 532,524 580,517 634,487 687,435 745,379 755,357 751,295 749,258 744,244 717,201 703,178 688,145 676,118 668,110 660,103 652,95 Z"/>
         <path fill="rgb(0,0,0)" stroke="none" d="M 514,776 C 523,773 531,770 540,767 551,763 562,758 573,752 599,693 619,674 685,654 695,651 697,649 704,647 711,639 717,630 723,622 729,613 734,605 739,596 741,593 743,591 744,588 750,576 756,564 761,552 763,547 765,542 767,536 L 754,550 C 712,593 702,600 662,611 597,629 573,648 544,703 532,726 522,751 514,776 Z"/>
         <path fill="rgb(0,0,0)" stroke="none" d="M 415,793 C 418,793 421,793 425,793 438,792 451,790 464,788 466,788 468,787 469,787 479,757 496,714 513,681 548,614 550,612 583,599 678,563 701,549 738,506 758,483 779,466 786,465 788,456 789,447 791,438 791,429 792,420 792,412 789,411 787,410 782,412 771,414 739,439 711,467 660,517 636,532 572,551 555,556 532,567 522,574 501,591 442,708 420,778 L 415,793 Z"/>
         <path fill="rgb(0,0,0)" stroke="none" d="M 87,545 C 94,525 105,497 112,483 133,441 225,377 293,358 326,348 338,332 325,316 313,301 301,302 249,323 194,344 100,410 79,442 70,454 58,481 52,500 45,520 37,532 29,544 33,556 38,567 44,578 46,581 48,585 50,588 51,591 53,594 55,596 70,582 80,566 87,545 Z"/>
         <path fill="rgb(0,0,0)" stroke="none" d="M 322,675 C 335,648 353,616 362,605 383,580 385,563 366,553 343,541 330,555 294,625 256,699 252,702 176,707 168,708 162,710 155,711 161,716 167,720 173,725 182,731 190,736 199,741 201,743 204,744 207,746 210,747 213,749 216,750 275,743 295,732 322,675 Z"/>
         <path fill="rgb(0,0,0)" stroke="none" d="M 1,391 C 1,394 1,396 1,398 1,407 1,417 2,426 3,439 4,452 7,465 8,473 10,480 11,487 15,478 17,475 21,465 38,412 39,412 100,366 168,315 252,271 291,265 313,262 320,265 342,286 366,308 368,312 363,335 357,370 341,383 289,401 207,428 132,505 119,576 115,594 109,613 105,618 103,620 85,628 78,633 81,637 84,640 87,644 95,654 103,664 112,673 137,662 152,659 169,663 209,673 227,662 256,608 286,550 293,542 327,525 358,509 379,512 400,534 420,555 418,584 392,628 380,650 360,689 349,715 333,751 314,767 285,778 296,781 307,784 318,786 331,789 344,791 357,792 359,792 360,792 362,792 373,780 381,767 387,748 392,734 412,691 432,653 453,614 470,575 470,566 470,544 427,488 401,474 373,460 355,461 314,480 263,504 238,528 220,571 209,599 200,610 188,613 167,618 159,606 166,581 185,515 249,458 329,437 369,426 391,406 403,369 424,309 413,277 359,240 318,211 283,212 210,244 160,266 49,339 9,375 7,377 4,387 1,391 L 1,391 Z"/>
        </g>
       </g>
      </g>
     </g>
    </g>
   </g>
  </g>
 </g>
</svg>